<svg width="15" height="16" viewBox="0 0 15 16" fill="none" xmlns="http://www.w3.org/2000/svg">
<path d="M5.77004 13.4047C5.77004 13.5945 5.81944 13.7765 5.90731 13.9108C5.99524 14.045 6.11442 14.1204 6.23878 14.1204H14.5314C14.6989 14.1204 14.8536 13.984 14.9373 13.7625C15.0211 13.5411 15.0211 13.2683 14.9373 13.0468C14.8536 12.8253 14.6989 12.689 14.5314 12.689H6.23878C6.11443 12.689 5.99525 12.7644 5.90731 12.8986C5.81944 13.0328 5.77004 13.2149 5.77004 13.4047ZM0.468827 12.6889H4.12374V11.5259C4.12374 11.2702 4.21307 11.0339 4.35811 10.9061C4.5031 10.7782 4.6818 10.7782 4.82685 10.9061C4.97184 11.034 5.06121 11.2702 5.06121 11.5259V15.2842C5.06121 15.54 4.97183 15.7762 4.82685 15.9041C4.6818 16.0319 4.5031 16.0319 4.35811 15.9041C4.21306 15.7762 4.12374 15.54 4.12374 15.2842V14.1204H0.469083C0.301645 14.1204 0.146891 13.9841 0.0631782 13.7626C-0.0205385 13.5411 -0.0205385 13.2683 0.0631782 13.0469C0.146895 12.8254 0.301401 12.6889 0.468827 12.6889ZM0.468827 7.28381H8.66966C8.83715 7.28381 8.9919 7.42021 9.07561 7.64167C9.15933 7.86314 9.15933 8.13592 9.07561 8.35739C8.9919 8.57887 8.83713 8.71525 8.66966 8.71525H0.469083C0.301645 8.71525 0.146891 8.57885 0.0631782 8.35739C-0.0205385 8.13592 -0.0205385 7.86314 0.0631782 7.64167C0.146895 7.42019 0.301401 7.28381 0.468827 7.28381ZM14.5308 8.71527H10.7842V9.88089C10.7842 10.1366 10.6949 10.3729 10.5499 10.5007C10.4048 10.6286 10.2262 10.6286 10.0811 10.5007C9.93607 10.3729 9.84676 10.1366 9.84676 9.88089V6.12081C9.84676 5.86506 9.93608 5.62884 10.0811 5.50102C10.2262 5.37311 10.4048 5.37311 10.5499 5.50102C10.6949 5.62885 10.7842 5.86508 10.7842 6.12081V7.28512H14.5312C14.6987 7.28512 14.8534 7.42152 14.9371 7.64298C15.0208 7.86445 15.0208 8.13723 14.9371 8.35871C14.8534 8.58018 14.6986 8.71656 14.5312 8.71656L14.5308 8.71527ZM14.5308 3.31014H7.83022V4.47577C7.83022 4.73152 7.74089 4.96774 7.59586 5.09556C7.45081 5.22346 7.27217 5.22346 7.12712 5.09556C6.98208 4.96773 6.89276 4.7315 6.89276 4.47577V0.715687C6.89276 0.459942 6.98209 0.223722 7.12712 0.0958986C7.27217 -0.0320072 7.45081 -0.0320072 7.59586 0.0958986C7.7409 0.223728 7.83022 0.459962 7.83022 0.715687V1.88131H14.5312C14.6987 1.88131 14.8534 2.01771 14.9371 2.23917C15.0208 2.46064 15.0208 2.73342 14.9371 2.9549C14.8534 3.17637 14.6986 3.31275 14.5312 3.31275L14.5308 3.31014ZM5.71502 3.31014H0.468827C0.301388 3.31014 0.146635 3.17375 0.0629217 2.95229C-0.020795 2.73082 -0.020795 2.45803 0.0629217 2.23656C0.146638 2.01509 0.301401 1.87871 0.468827 1.87871H5.7154C5.88289 1.87871 6.03765 2.0151 6.12136 2.23656C6.20507 2.45802 6.20508 2.73082 6.12136 2.95229C6.03764 3.17376 5.8825 3.31014 5.71502 3.31014Z" fill="black"/>
</svg>
